<?xml version="1.0" encoding="utf-8"?>
<!-- Generator: Adobe Illustrator 24.1.2, SVG Export Plug-In . SVG Version: 6.00 Build 0)  -->
<svg version="1.1" id="Layer_1" xmlns="http://www.w3.org/2000/svg" xmlns:xlink="http://www.w3.org/1999/xlink" x="0px" y="0px"
	 viewBox="0 0 567 214.6" style="enable-background:new 0 0 567 214.6;" xml:space="preserve">
<style type="text/css">
	.st0{fill:#0074D9;}
</style>
<path class="st0" d="M92.5,0C43,3.5,3.5,43,0,92.5c-0.3,3.9,2.8,7.1,6.6,7.1H93c3.7,0,6.7-3,6.7-6.7V6.7C99.6,2.8,96.3-0.3,92.5,0
	L92.5,0z M214.8,93c-3.5-49.4-43-89-92.4-92.4c-3.9-0.3-7.1,2.8-7.1,6.6v86.3c0,3.7,3,6.7,6.7,6.7h86.3
	C212.1,100.2,215.1,96.9,214.8,93L214.8,93z M205.4,113.3c-49.4,3.5-89,43-92.4,92.4c-0.3,3.9,2.8,7.1,6.6,7.1h86.3
	c3.7,0,6.7-3,6.7-6.7v-86.3C212.5,116.1,209.3,113,205.4,113.3L205.4,113.3z M0,122.1c3.5,49.5,43,89,92.4,92.4
	c3.9,0.3,7.1-2.8,7.1-6.6v-86.3c0-3.7-3-6.7-6.7-6.7H6.7C2.8,115-0.3,118.2,0,122.1L0,122.1z M244.9,129.1h-6.6V85.7h6.6V129.1z
	 M287.5,129.1h-0.9L261.3,101l0.2,4.7v23.4h-6.6V85.6h0.8l25.5,28.4l-0.2-4.9V85.7h6.6V129.1z M312.1,129.1h-0.9l-20.1-43.4h7.5
	l13,29.8l13-29.8h7.4L312.1,129.1z M355.7,129.6c-2.9,0-5.7-0.5-8.3-1.5c-2.6-1-4.9-2.5-6.9-4.5c-2-1.9-3.6-4.3-4.8-7.1
	c-1.2-2.8-1.7-5.9-1.7-9.3c0-3.5,0.6-6.6,1.7-9.4s2.8-5.1,4.8-7c2-1.9,4.3-3.4,7-4.4c2.6-1,5.4-1.5,8.3-1.5c2.9,0,5.7,0.5,8.3,1.5
	c2.6,1,4.9,2.5,7,4.4c2,1.9,3.6,4.3,4.8,7c1.2,2.8,1.7,5.9,1.7,9.4c0,3.5-0.6,6.6-1.7,9.3c-1.2,2.8-2.8,5.1-4.8,7.1
	c-2,1.9-4.3,3.4-6.9,4.5C361.5,129.1,358.7,129.6,355.7,129.6 M355.7,123.7c2.7,0,5.1-0.6,7.4-1.9c2.2-1.3,4-3.1,5.4-5.5
	c1.3-2.4,2-5.4,2-8.9c0-3.6-0.7-6.6-2-9c-1.3-2.4-3.1-4.3-5.3-5.5s-4.7-1.9-7.4-1.9c-2.7,0-5.2,0.6-7.4,1.9s-4,3.1-5.3,5.5
	c-1.3,2.4-2,5.4-2,9c0,3.5,0.7,6.5,2.1,8.9c1.4,2.4,3.2,4.3,5.4,5.5C350.7,123.1,353.1,123.7,355.7,123.7 M394.9,129.6
	c-1.7,0-3.3-0.2-4.9-0.6c-1.6-0.4-3-0.9-4.3-1.5c-1.3-0.6-2.2-1.2-2.8-1.9l3.1-5.6c0.4,0.4,1.1,0.8,2,1.4c0.9,0.6,2,1.1,3.2,1.5
	c1.2,0.4,2.4,0.6,3.7,0.6c2,0,3.7-0.5,5-1.4c1.4-0.9,2-2.3,2-4.1c0-1.5-0.4-2.7-1.2-3.7c-0.8-1-1.8-1.9-3.1-2.6
	c-1.3-0.7-2.7-1.5-4.1-2.1c-1.5-0.7-2.9-1.5-4.2-2.3c-1.5-1-2.9-2.4-4-4.1c-1.1-1.7-1.7-3.9-1.7-6.6c0-2.6,0.6-4.8,1.8-6.5
	c1.2-1.7,2.8-3,4.8-3.8c2-0.8,4.2-1.3,6.5-1.3c1.9,0,3.5,0.2,4.8,0.6c1.3,0.4,2.5,0.9,3.4,1.4c0.9,0.6,1.6,1,2.1,1.5l-3.1,5.4
	c-0.7-0.7-1.7-1.4-3-2c-1.3-0.6-2.8-0.9-4.5-0.9c-1.9,0-3.5,0.4-4.6,1.3c-1.1,0.9-1.7,2.2-1.7,3.9c0,1.5,0.5,2.8,1.5,3.9
	c1,1.1,2.3,2.1,3.9,2.9c1.6,0.9,3.2,1.8,4.9,2.7c1.7,0.9,3.2,2,4.5,3.2c1.1,0.9,2,2.1,2.7,3.5c0.8,1.4,1.1,3,1.1,4.8
	c0,2.7-0.6,4.9-1.9,6.8c-1.2,1.9-2.9,3.2-5,4.2C399.8,129.2,397.5,129.6,394.9,129.6 M430.7,129.1h-6.5V91.5H413v-5.8h28.9v5.8
	h-11.2V129.1z M468.2,129.6c-3,0-5.7-0.5-8.4-1.5c-2.6-1-4.9-2.5-6.9-4.5s-3.6-4.3-4.8-7.1c-1.2-2.8-1.7-5.9-1.7-9.3
	c0-3.5,0.6-6.6,1.7-9.4c1.2-2.8,2.8-5.1,4.8-7c2-1.9,4.3-3.4,7-4.4c2.6-1,5.4-1.5,8.3-1.5c2.9,0,5.7,0.5,8.3,1.5
	c2.6,1,4.9,2.5,7,4.4c2,1.9,3.6,4.3,4.8,7c1.2,2.8,1.7,5.9,1.7,9.4c0,3.5-0.6,6.6-1.7,9.3c-1.2,2.8-2.7,5.1-4.8,7.1
	c-2,1.9-4.3,3.4-6.9,4.5C473.9,129.1,471.1,129.6,468.2,129.6 M468.2,123.7c2.7,0,5.1-0.6,7.4-1.9c2.2-1.3,4-3.1,5.4-5.5
	c1.3-2.4,2-5.4,2-8.9c0-3.6-0.7-6.6-2-9c-1.3-2.4-3.1-4.3-5.3-5.5c-2.2-1.2-4.7-1.9-7.4-1.9s-5.2,0.6-7.4,1.9
	c-2.2,1.2-4,3.1-5.3,5.5c-1.3,2.4-2,5.4-2,9c0,3.5,0.7,6.5,2.1,8.9c1.4,2.4,3.2,4.3,5.4,5.5S465.6,123.7,468.2,123.7 M517,129.5
	c-3.5,0-6.5-0.6-9.2-1.8c-2.7-1.2-5-2.8-6.9-4.9c-1.9-2.1-3.3-4.4-4.2-7.1c-1-2.7-1.5-5.5-1.5-8.5c0-3.3,0.5-6.3,1.6-9
	c1.1-2.7,2.6-5.1,4.6-7.1c2-2,4.3-3.5,7-4.6c2.7-1.1,5.7-1.6,9-1.7c2.1,0,4,0.2,5.7,0.7c1.7,0.4,3,0.9,4.1,1.4c1.1,0.5,1.7,1,2,1.3
	l-2.9,5.9c-1.1-0.9-2.4-1.7-3.9-2.3c-1.6-0.6-3.4-0.9-5.5-0.9c-2.7,0-5.2,0.7-7.3,2c-2.2,1.3-3.9,3.2-5.2,5.7
	c-1.3,2.4-1.9,5.3-1.9,8.7c0,2.9,0.6,5.6,1.6,8.1c1.1,2.4,2.7,4.4,4.9,5.8c2.1,1.5,4.7,2.2,7.8,2.2c1.7,0,3.4-0.2,5-0.7
	c1.6-0.5,3.3-1.2,5-2.3l2,5.6c-0.5,0.5-1.4,1-2.6,1.5c-1.2,0.5-2.6,1-4.2,1.3S518.7,129.5,517,129.5 M542.1,129.1h-6.5V85.7h6.5V105
	L557,85.7h7.9L550,104.7l17,24.3h-8.1l-13.3-19.4l-3.5,4.4L542.1,129.1z"/>
</svg>
