<svg xmlns="http://www.w3.org/2000/svg" version="1.1" xmlns:xlink="http://www.w3.org/1999/xlink" width="1500" height="219" viewBox="0 0 1500 219"><svg xml:space="preserve" width="1500" height="219" data-version="2" data-id="lg_5HoEx4JwZhBccUpILJ" viewBox="0 0 578 219" x="0" y="0"><rect width="100%" height="100%" fill="transparent"></rect><path fill="#0074d9" d="M97.953 2.228C48.504 5.725 9 45.23 5.503 94.678c-.273 3.86 2.773 7.145 6.642 7.145h86.297a6.658 6.658 0 0 0 6.657-6.658V8.87c0-3.869-3.285-6.913-7.144-6.642ZM220.31 95.261c-3.496-49.449-43-88.953-92.45-92.45-3.858-.273-7.144 2.773-7.144 6.642V95.75a6.658 6.658 0 0 0 6.658 6.657h86.295c3.869 0 6.913-3.285 6.642-7.144Zm-9.421 20.23c-49.45 3.497-88.954 43.001-92.45 92.45-.274 3.86 2.772 7.145 6.64 7.145h86.298a6.658 6.658 0 0 0 6.657-6.658v-86.295c0-3.869-3.285-6.913-7.144-6.642ZM5.503 124.32c3.497 49.45 43.001 88.954 92.45 92.45 3.86.274 7.145-2.772 7.145-6.64v-86.298a6.658 6.658 0 0 0-6.658-6.657H12.145c-3.869 0-6.913 3.285-6.642 7.144Zm244.857 42.95h-6.6V123.9h6.6zm42.66 0h-.88l-25.37-28.08.17 4.72v23.36h-6.61v-43.42h.83l25.49 28.43-.24-4.95V123.9h6.61zm24.6 0h-.88l-20.06-43.37h7.49l12.98 29.8 13.04-29.8h7.43zm43.6.59q-4.42 0-8.34-1.53-3.93-1.54-6.94-4.46-3.01-2.92-4.75-7.05-1.74-4.13-1.74-9.32 0-5.25 1.74-9.38 1.74-4.13 4.78-7.02 3.04-2.89 6.97-4.4 3.92-1.5 8.28-1.5 4.37 0 8.29 1.5 3.93 1.51 6.97 4.4 3.03 2.89 4.78 7.02 1.74 4.13 1.74 9.38 0 5.19-1.74 9.32-1.75 4.13-4.75 7.05-3.01 2.92-6.94 4.46-3.92 1.53-8.35 1.53m0-5.96q4.02 0 7.38-1.89 3.36-1.89 5.37-5.51 2-3.63 2-8.94 0-5.37-2-9-2.01-3.63-5.34-5.49-3.33-1.86-7.41-1.86-4.07 0-7.4 1.86t-5.34 5.49q-2.01 3.63-2.01 9 0 5.31 2.07 8.94 2.06 3.62 5.43 5.51 3.36 1.89 7.25 1.89m39.12 5.96q-2.48 0-4.9-.62-2.41-.62-4.3-1.53-1.89-.92-2.83-1.86l3.12-5.61q.65.53 2.04 1.39 1.38.85 3.21 1.5t3.66.65q3.01 0 5.05-1.41 2.03-1.42 2.03-4.13 0-2.25-1.18-3.72-1.18-1.48-3.1-2.6-1.91-1.12-4.13-2.15-2.21-1.03-4.21-2.33-2.31-1.53-4.02-4.07-1.71-2.54-1.71-6.55 0-3.95 1.8-6.49t4.78-3.81q2.98-1.26 6.52-1.26 2.83 0 4.84.59 2 .59 3.36 1.41 1.36.83 2.13 1.48l-3.13 5.37q-1-1.07-3.01-1.98-2.01-.92-4.48-.92-2.9 0-4.61 1.33-1.71 1.33-1.71 3.93 0 2.3 1.54 3.92 1.53 1.62 3.92 2.95 2.39 1.33 4.93 2.68 2.53 1.36 4.48 3.19 1.59 1.42 2.71 3.54 1.13 2.12 1.13 4.78 0 4.01-1.86 6.78-1.86 2.78-4.99 4.16-3.13 1.39-7.08 1.39m35.81-.59h-6.54v-37.58h-11.1v-5.79h28.85v5.79h-11.21zm37.53.59q-4.43 0-8.35-1.53-3.92-1.54-6.93-4.46t-4.75-7.05q-1.74-4.13-1.74-9.32 0-5.25 1.74-9.38 1.74-4.13 4.78-7.02 3.04-2.89 6.96-4.4 3.92-1.5 8.29-1.5 4.36 0 8.29 1.5 3.92 1.51 6.96 4.4 3.04 2.89 4.78 7.02 1.74 4.13 1.74 9.38 0 5.19-1.74 9.32t-4.75 7.05q-3.01 2.92-6.93 4.46-3.93 1.53-8.35 1.53m0-5.96q4.01 0 7.37-1.89 3.37-1.89 5.37-5.51 2.01-3.63 2.01-8.94 0-5.37-2.01-9-2-3.63-5.34-5.49-3.33-1.86-7.4-1.86t-7.41 1.86q-3.33 1.86-5.34 5.49-2 3.63-2 9 0 5.31 2.06 8.94 2.07 3.62 5.43 5.51 3.36 1.89 7.26 1.89m48.85 5.78q-5.19 0-9.23-1.77t-6.85-4.87q-2.8-3.09-4.24-7.08-1.45-3.98-1.45-8.46 0-4.9 1.62-8.97t4.57-7.05q2.95-2.98 7.03-4.63 4.07-1.65 8.96-1.65 3.19 0 5.67.65 2.48.64 4.07 1.44 1.59.8 2 1.27l-2.89 5.9q-1.59-1.42-3.92-2.3-2.33-.89-5.46-.89-4.07 0-7.34 2.01-3.28 2.01-5.19 5.66-1.92 3.66-1.92 8.68 0 4.42 1.65 8.05 1.65 3.63 4.87 5.81 3.21 2.18 7.81 2.18 2.54 0 4.99-.67 2.45-.68 5.04-2.28l1.95 5.61q-.77.71-2.59 1.5-1.83.8-4.22 1.33-2.39.53-4.93.53m25.08-.41h-6.49V123.9h6.49v19.36l14.86-19.36h7.91l-14.93 19.06 17.05 24.31h-8.08l-13.27-19.41-3.54 4.36z"></path></svg></svg>